<?xml version="1.0" encoding="utf-8"?>
<!-- Generator: Adobe Illustrator 21.1.0, SVG Export Plug-In . SVG Version: 6.00 Build 0)  -->
<svg version="1.1" xmlns="http://www.w3.org/2000/svg" xmlns:xlink="http://www.w3.org/1999/xlink" x="0px" y="0px"
	 viewBox="0 0 225 51" style="enable-background:new 0 0 225 51;" xml:space="preserve">
<style type="text/css">
	.st0{fill:#231F20;}
</style>
<g id="Layer_2">
	<path class="st0" d="M0,0v51h225V0H0z M219.5,45.5H5.5V5.5h214V45.5z"/>
</g>
<g id="Layer_1">
	<title>C15F8C62-0E57-44A6-BE5A-DA7EDCB06096</title>
	<desc>Created with sketchtool.</desc>
	<path id="Fill-2" class="st0" d="M24.2,25.4v-5.2h6.5c0.9,0,1.6,0.7,1.6,1.6v2.1c0,0.9-0.7,1.6-1.6,1.6H24.2z M33.7,14.8H17.3v21.4
		h6.8l0-5.4l9.5,0c2.6,0,4.7-2.1,4.7-4.6v-6.8C38.3,16.9,36.2,14.8,33.7,14.8L33.7,14.8z"/>
	<path id="Fill-4" class="st0" d="M145.3,36.3l1.4-3.8h9.1l1.4,3.8h6.9l-7.9-21.4h-9.9l-8.2,21.4H145.3z M148.5,27.7l2.6-7h0.4
		l2.6,7H148.5z"/>
	<path id="Fill-6" class="st0" d="M91,36.3h7.1V27c0-2.1,0.5-3.7,3.7-3.7c2.3,0,2.9,0.9,2.9,2.6v10.3h7.1V24.6
		c0-3.6-2.5-5.3-7.1-5.3c-2.8,0-5.1,0.4-6.1,3.4h-0.5v-3.2H91V36.3"/>
	<polygon id="Fill-8" class="st0" points="65.5,14.8 65.5,36.3 72.4,36.3 72.4,31.7 74.9,29.1 81.3,36.3 89.7,36.3 79.5,24.6 
		89.3,14.8 80.7,14.8 72.4,23.4 72.4,14.8 	"/>
	<polygon id="Fill-10" class="st0" points="173.8,30.3 168.1,14.8 161.2,14.8 169.1,36.3 179,36.3 187.1,14.8 180.1,14.8 
		174.2,30.3 	"/>
	<polygon id="Fill-12" class="st0" points="90.9,17 95.2,12.8 102.4,12.8 98.1,17 	"/>
	<polygon id="Fill-14" class="st0" points="209,19.8 209,14.8 188.2,14.8 188.2,36.3 209.3,36.3 209.3,30.6 195,30.6 195,27.5 
		208.3,27.5 208.3,22.8 195,22.8 195,19.8 	"/>
	<path id="Fill-16" class="st0" d="M44.7,36.3l1.4-3.8h9.1l1.4,3.8h6.9l-7.9-21.4h-9.9l-8.2,21.4H44.7z M47.9,27.7l2.6-7h0.4l2.6,7
		H47.9z"/>
	<path id="Fill-18" class="st0" d="M122.1,21.1c0,1.2,0.3,1.4,1.5,1.5c0.4,0.1,0.9,0.1,1.4,0.1l2.9,0.2c7.9,0.5,9.8,1,9.8,6.5
		c0,7.1-1.6,7.1-11.5,7.1c-2.4,0-4.2,0-5.7-0.1c-4.7-0.3-5.5-1.8-5.6-6.7l0-0.7h6.8l0,0.6c0,1.9,0.5,2.1,4.4,2.1
		c4.3,0,4.4-0.3,4.4-2c0-1.6-0.4-1.8-3.7-2l-1.6-0.1c-2-0.1-3.6-0.2-5-0.4c-4.2-0.5-5.4-1.7-5.4-6.2c0-6.2,2-6.6,11.2-6.6
		c9,0,10.8,0.1,10.8,6.1v0.9h-6.8c0-2.6-1.5-2.2-3.9-2.2C122.5,19.3,122.1,19.4,122.1,21.1"/>
</g>
</svg>
